<svg width="583" height="1024" viewBox="0 0 583 1024" fill="none" xmlns="http://www.w3.org/2000/svg">
<g clip-path="url(#clip0_2002_331)">
<path d="M165 309.5L175.5 317L183 318H189L198.5 310.5L213 303.5L249 298.5H286.5L293.5 303L300 300L304.5 297.5H327.5L337 300L348 298.5L357.5 301.5L371.5 303L382 307.5L390 310.5L400 323L422.966 314.5L421.483 302L411 307.5H401.5L359.5 286.5L340.5 280.5H317.5L302 272H279L269 279H249L234 283.5L218 285.5L196 298.5L184 303.5H173.5L164.731 295.5L165 309.5Z" fill="#34171F"/>
<path d="M180.5 215V230.5L184.5 229H199L209.5 223L219.5 215L234 212L249 206H267L283 200H308.5L333 208.5L359.5 212L371.5 218.5L387.5 226.5L402.5 230.5H408V215.5L398.5 216L357.5 202.5L330.5 191.5L314.5 190L293.5 186.5L262 188.5L234 199L198.5 217L186 218.5L180.5 215Z" fill="#34171F"/>
<path d="M400.327 510.5L400.701 508.82L397.5 485.5L393 480.5L380.5 479.5L375.5 474.5H363.5L360 466L330 461L314.5 457.5L290 428L281 445L271.5 451.5L261 461L237 468.5H214.5L203 479.5L187 478.5L184.891 503.5L188.75 496L196 495.5L205.5 491L222.5 483L233.5 482.5L281 484L290 474.5L300 484L316 482L342 480.5L352.5 482L371.5 488L382 490.5L390 496L397.5 504.5L400.327 510.5Z" fill="#34171F"/>
<path d="M333 587.5L351.5 593.5L363.5 594.5L370.5 598.5L372.563 606.5L374.616 599L372.563 583.5L353 577.5L337 573.5L329.5 569.5L310 563L300 555L292 546.5L286 554L278 559L262.5 561.5L245 569.5L227 574.5L205.5 582.5L203.849 599L204.141 600.5L209.5 593.5L221.5 589L233.5 587.5L251 585H279.5L286 566.5L293 558L297 564L300 572.5L306.5 585.5L319.5 586.5L333 587.5Z" fill="#34171F"/>
<path d="M242 729.5L253.5 751L260 750.5L264.5 753L274 758.5L283 758L287 764.5L290.5 758.5L300 758L311.5 753.5L316.5 750.5L326.5 750L332.513 745.5L337 739L324 737L321.5 739.5H315H309L302 745L296 743L293.5 738L290.5 729.5V710V673.5L289 637.5V600.5L288.5 637L287 673.5L286.5 710L285.5 729.5L283 743L274 745L265.5 739H256.5L248.5 738L242 729.5Z" fill="#34171F"/>
<path d="M510 345L494 348.5L489.5 350.662L529.5 373L543.5 398C544 406.333 545 423.3 545 424.5C545 425.7 544 443.333 543.5 452L535.5 468.5L524 479.5L514 491L505 492.5L489.5 506.5H470.5L458 508.5L451.5 510L468 522L494 523.5L523.5 511L549 485.5L560.5 466L571 432.5V410.5L568 404L564.5 392L559 380.5L554 373L549 366L542 362.5L532.5 355L523.5 350L510 345Z" fill="#34171F"/>
<path d="M370.05 900L365.5 889.5L353.5 868.5L357.5 878L361 885V894L360 902.5L357.5 912L353.5 921L348 929L342.5 934L335.5 939L328 941.5L322.5 951.5L312 953L301 956L290.5 957.5L282 956L272 954L262 951.5L255.5 949L249.5 945L245 940.5L240 934L233.5 926.5L228 917L223.58 908L220.5 901L217.5 891.5V885L220.5 878L223.58 871.5V864.5L209 887L207 895.5V929L210.5 940.5L217.5 954L232.5 966.5L253 980.5L268.5 983L297.5 984.5L315 980.5L333.5 973L348 961.5L357.5 952L364 942.5L368.5 931.5L370 911.5L370.05 900Z" fill="#34171F"/>
<path d="M74.5 353.5L97.5 340L82.5 338.5H65.5L53 347L32.5 364.5L18.5 382.5L16.5 400L18.5 426.5L24 449.5L32.5 474.5L48 490.5L68 506L92 515.5H113.5L128 508L137.309 497H104.5L78.5 485L60.5 467L45 444L38 414.5L41.5 392.5L55.5 370L74.5 353.5Z" fill="#34171F"/>
<path d="M301 993.5L308.5 992L322.5 990L334.5 984.5L343 980L351 975.5L360.5 969L372 954L374.5 945L376.5 929L374.5 914L372 904.5L370.05 900L370 911.5L368.5 931.5L364 942.5L357.5 952L348 961.5L333.5 973L315 980.5L297.5 984.5L268.5 983L253 980.5L232.5 966.5L217.5 954L210.5 940.5L207 929V895.5L203.5 908V945L216 970.5L232.5 984.5L247 990.5L264 993.5H301Z" fill="#EFF3EC"/>
<path d="M325.5 775.5L337 739L332.513 745.5L326.5 750L316.5 750.5L311.5 753.5L300 758L290.5 758.5L287 764.5L283 758L274 758.5L264.5 753L260 750.5L253.5 751L242 729.5L248.5 750.5L252.026 767.5L255 783L253.5 796L252.026 806.5L258.5 811.25L262 815L269 817.5L285.5 818.5L308 817.5L315 815L319.32 811.25L323.64 807.5L325.5 775.5Z" fill="#EFF3EC"/>
<path d="M553 355L536.5 345H524H510L523.5 350L532.5 355L542 362.5L549 366L554 373L559 380.5L564.5 392L568 404L571 410.5V432.5L560.5 466L549 485.5L523.5 511L494 523.5L468 522L451.5 510L446.5 510.5L453 525.5L468 538.5H498.5L513 534L541 515L560.5 492L578 456.5L583 424.5V402L573 372.5L553 355Z" fill="#EFF3EC"/>
<path d="M113.5 528L126.5 517.5L137.309 497L128 508L113.5 515.5H92L68 506L48 490.5L32.5 474.5L24 449.5L18.5 426.5L16.5 400L18.5 382.5L32.5 364.5L53 347L65.5 338.5L38 340L5 367L0 400L2.5 435L16.5 477L48 517.5L75.5 528H113.5Z" fill="#EFF3EC"/>
<path d="M180.5 231L164.5 283.5L164.731 295.5L173.5 303.5H184L196 298.5L218 285.5L234 283.5L249 279H269L279 272H302L317.5 280.5H340.5L359.5 286.5L401.5 307.5H411L421.483 302L420 289.5L415 261L408 233V230.5H402.5L387.5 226.5L371.5 218.5L359.5 212L333 208.5L308.5 200H283L267 206H249L234 212L219.5 215L209.5 223L199 229H184.5L180.5 230.5V231Z" fill="#EFF3EC"/>
<path d="M204.5 139.5L206.5 147.5L212 154.5L221 158L227.5 156.5L230.5 154.5L233 152.5L238 150.5L240 146.5L246 130.5L240.5 113L234.5 105L227 103.5L210.5 107.5L206.5 111.5L203.5 119.5V130.5L204.5 139.5Z" fill="white"/>
<path d="M390 124L387.5 117.5L384.5 111.5L368.5 105.5L357 111.5L352 126L354 138L359.5 150.5L365 154.5C366.5 156.333 372.1 157 372.5 157C374 157 387.5 158.5 390 157V151V124Z" fill="white"/>
<path d="M380.5 577.5L388 545L393.827 525.5L400.327 510.5L397.5 504.5L390 496L382 490.5L371.5 488L352.5 482L342 480.5L316 482L300 484L290 474.5L281 484L233.5 482.5L222.5 483L205.5 491L196 495.5L188.75 496L184.891 503.5L188.75 521.25L203.849 599L205.5 582.5L227 574.5L245 569.5L262.5 561.5L278 559L286 554L292 546.5L300 555L310 563L329.5 569.5L337 573.5L353 577.5L372.563 583.5L374.616 599L380.5 577.5Z" fill="#EFF3EC"/>
<path d="M149 356L97.5 340L74.5 353.5L55.5 370L41.5 392.5L38 414.5L45 444L60.5 467L78.5 485L104.5 497H137.309L170 435L184.891 503.5L187 478.5L203 479.5L214.5 468.5H237L261 461L271.5 451.5L281 445L290 428L314.5 457.5L330 461L360 466L363.5 474.5H375.5L380.5 479.5L393 480.5L397.5 485.5L400.701 508.82L404 494L409 476L411.5 458.5L415.5 441L418.5 458.5L422 468.5L427 483L434.5 494L446.5 510.5L451.5 510L458 508.5L470.5 506.5H489.5L505 492.5L514 491L524 479.5L535.5 468.5L543.5 452C544 443.333 545 425.7 545 424.5C545 423.3 544 406.333 543.5 398L529.5 373L489.5 350.662L455.5 367H433L425 358L423.5 319L422.966 314.5L400 323L390 310.5L382 307.5L371.5 303L357.5 301.5L348 298.5L337 300L327.5 297.5H304.5L300 300L293.5 303L286.5 298.5H249L213 303.5L198.5 310.5L189 318H183L175.5 317L165 309.5L162.5 325L163 349L157 354.5L149 356Z" fill="#E36922"/>
<path d="M204.5 165.5L180.5 215L186 218.5L198.5 217L234 199L262 188.5L293.5 186.5L314.5 190L330.5 191.5L357.5 202.5L398.5 216L408 215.5L405.5 199L400 184L390 162.5V157C387.5 158.5 374 157 372.5 157C372.1 157 366.5 156.333 365 154.5L359.5 150.5L354 138L352 126L357 111.5L368.5 105.5L384.5 111.5L376 94.5L359.5 80L347.5 56L337.5 45L323 36L315 32.5L304.5 31H286.5L276.5 34.5L249 52.5L240.5 66.5L238.5 74.5L219.5 89L213 98.5L210.5 107.5L227 103.5L234.5 105L240.5 113L246 130.5L240 146.5L238 150.5L233 152.5L230.5 154.5L227.5 156.5L221 158L212 154.5L206.5 147.5L204.5 165.5Z" fill="#E36922"/>
<path d="M349.5 689L367.5 625L372.563 606.5L370.5 598.5L363.5 594.5L351.5 593.5L333 587.5L319.5 586.5L306.5 585.5L300 572.5L297 564L293 558L286 566.5L279.5 585H251L233.5 587.5L221.5 589L209.5 593.5L204.141 600.5L205.5 607.5L218.5 654.5L231 698L242 729.5L248.5 738L256.5 739H265.5L274 745L283 743L285.5 729.5L286.5 710L287 673.5L288.5 637L289 600.5V637.5L290.5 673.5V710V729.5L293.5 738L296 743L302 745L309 739.5H315H321.5L324 737L337 739L342.5 718.5L349.5 689Z" fill="#E36922"/>
<path d="M252.026 806.5L249.5 824.5L223.58 864.5V871.5L220.5 878L217.5 885V891.5L220.5 901L223.58 908L228 917L233.5 926.5L240 934L245 940.5L249.5 945L255.5 949L262 951.5L272 954L282 956L290.5 957.5L301 956L312 953L322.5 951.5L328 941.5L335.5 939L342.5 934L348 929L353.5 921L357.5 912L360 902.5L361 894V885L357.5 878L353.5 868.5L339 849L332.513 833.5L326.5 818.5L323.64 807.5L319.32 811.25L315 815L308 817.5L285.5 818.5L269 817.5L262 815L258.5 811.25L252.026 806.5Z" fill="#E36922"/>
<path d="M97.5 340L149 356L157 354.5L163 349L162.5 325L165 309.5M97.5 340L74.5 353.5L55.5 370L41.5 392.5L38 414.5L45 444L60.5 467L78.5 485L104.5 497H137.309M97.5 340L82.5 338.5H65.5M180.5 215L204.5 165.5L206.5 147.5M180.5 215V230.5M180.5 215L186 218.5L198.5 217L234 199L262 188.5L293.5 186.5L314.5 190L330.5 191.5L357.5 202.5L398.5 216L408 215.5M206.5 147.5L204.5 139.5L203.5 130.5V119.5L206.5 111.5L210.5 107.5M206.5 147.5L212 154.5L221 158L227.5 156.5L230.5 154.5L233 152.5L238 150.5L240 146.5L246 130.5L240.5 113L234.5 105L227 103.5L210.5 107.5M210.5 107.5L213 98.5L219.5 89L238.5 74.5L240.5 66.5L249 52.5L276.5 34.5L286.5 31H304.5L315 32.5L323 36L337.5 45L347.5 56L359.5 80L376 94.5L384.5 111.5M390 151V124L387.5 117.5L384.5 111.5M390 151V162.5M390 151V157M390 162.5L400 184L405.5 199L408 215.5M390 162.5V157M408 215.5V230.5M510 345L494 348.5L489.5 350.662M510 345H524H536.5L553 355L573 372.5L583 402V424.5L578 456.5L560.5 492L541 515L513 534L498.5 538.5H468L453 525.5L446.5 510.5M510 345L523.5 350L532.5 355L542 362.5L549 366L554 373L559 380.5L564.5 392L568 404L571 410.5V432.5L560.5 466L549 485.5L523.5 511L494 523.5L468 522L451.5 510M400.327 510.5L393.827 525.5L388 545L380.5 577.5L374.616 599M400.327 510.5L397.5 504.5L390 496L382 490.5L371.5 488L352.5 482L342 480.5L316 482L300 484L290 474.5L281 484L233.5 482.5L222.5 483L205.5 491L196 495.5L188.75 496L184.891 503.5M400.327 510.5L400.701 508.82M337 739L325.5 775.5L323.64 807.5M337 739L332.513 745.5L326.5 750L316.5 750.5L311.5 753.5L300 758L290.5 758.5L287 764.5L283 758L274 758.5L264.5 753L260 750.5L253.5 751L242 729.5M337 739L324 737L321.5 739.5H315H309L302 745L296 743L293.5 738L290.5 729.5V710V673.5L289 637.5V600.5L288.5 637L287 673.5L286.5 710L285.5 729.5L283 743L274 745L265.5 739H256.5L248.5 738L242 729.5M337 739L342.5 718.5L349.5 689L367.5 625L372.563 606.5M365.5 889.5L372 904.5M365.5 889.5L353.5 868.5M365.5 889.5L370.05 900M372 904.5L374.5 914L376.5 929L374.5 945L372 954L360.5 969L351 975.5L343 980L334.5 984.5L322.5 990L308.5 992L301 993.5H264L247 990.5L232.5 984.5L216 970.5L203.5 945V908L207 895.5M372 904.5L370.05 900M242 729.5L231 698L218.5 654.5L205.5 607.5L204.141 600.5M242 729.5L248.5 750.5L252.026 767.5L255 783L253.5 796L252.026 806.5M252.026 806.5L249.5 824.5L223.58 864.5M252.026 806.5L258.5 811.25L262 815L269 817.5L285.5 818.5L308 817.5L315 815L319.32 811.25L323.64 807.5M323.64 807.5L326.5 818.5L332.513 833.5L339 849L353.5 868.5M207 895.5L209 887L223.58 864.5M207 895.5V929L210.5 940.5L217.5 954L232.5 966.5L253 980.5L268.5 983L297.5 984.5L315 980.5L333.5 973L348 961.5L357.5 952L364 942.5L368.5 931.5L370 911.5L370.05 900M165 309.5L175.5 317L183 318H189L198.5 310.5L213 303.5L249 298.5H286.5L293.5 303L300 300L304.5 297.5H327.5L337 300L348 298.5L357.5 301.5L371.5 303L382 307.5L390 310.5L400 323L422.966 314.5M165 309.5L164.731 295.5M446.5 510.5L434.5 494L427 483L422 468.5L418.5 458.5L415.5 441L411.5 458.5L409 476L404 494L400.701 508.82M446.5 510.5L451.5 510M353.5 868.5L357.5 878L361 885V894L360 902.5L357.5 912L353.5 921L348 929L342.5 934L335.5 939L328 941.5L322.5 951.5L312 953L301 956L290.5 957.5L282 956L272 954L262 951.5L255.5 949L249.5 945L245 940.5L240 934L233.5 926.5L228 917L223.58 908L220.5 901L217.5 891.5V885L220.5 878L223.58 871.5V864.5M204.141 600.5L203.849 599M204.141 600.5L209.5 593.5L221.5 589L233.5 587.5L251 585H279.5L286 566.5L293 558L297 564L300 572.5L306.5 585.5L319.5 586.5L333 587.5L351.5 593.5L363.5 594.5L370.5 598.5L372.563 606.5M372.563 606.5L374.616 599M374.616 599L372.563 583.5L353 577.5L337 573.5L329.5 569.5L310 563L300 555L292 546.5L286 554L278 559L262.5 561.5L245 569.5L227 574.5L205.5 582.5L203.849 599M203.849 599L188.75 521.25L184.891 503.5M184.891 503.5L170 435L137.309 497M184.891 503.5L187 478.5L203 479.5L214.5 468.5H237L261 461L271.5 451.5L281 445L290 428L314.5 457.5L330 461L360 466L363.5 474.5H375.5L380.5 479.5L393 480.5L397.5 485.5L400.701 508.82M401 511L400.701 508.82M422.966 314.5L423.5 319L425 358L433 367H455.5L489.5 350.662M422.966 314.5L421.483 302M421.483 302L420 289.5L415 261L408 233V230.5M421.483 302L411 307.5H401.5L359.5 286.5L340.5 280.5H317.5L302 272H279L269 279H249L234 283.5L218 285.5L196 298.5L184 303.5H173.5L164.731 295.5M164.731 295.5L164.5 283.5L180.5 231V230.5M180.5 230.5L184.5 229H199L209.5 223L219.5 215L234 212L249 206H267L283 200H308.5L333 208.5L359.5 212L371.5 218.5L387.5 226.5L402.5 230.5H408M384.5 111.5L368.5 105.5L357 111.5L352 126L354 138L359.5 150.5L365 154.5C366.5 156.333 372.1 157 372.5 157C374 157 387.5 158.5 390 157M451.5 510L458 508.5L470.5 506.5H489.5L505 492.5L514 491L524 479.5L535.5 468.5L543.5 452C544 443.333 545 425.7 545 424.5C545 423.3 544 406.333 543.5 398L529.5 373L489.5 350.662M137.309 497L126.5 517.5L113.5 528H75.5L48 517.5L16.5 477L2.5 435L0 400L5 367L38 340L65.5 338.5M137.309 497L128 508L113.5 515.5H92L68 506L48 490.5L32.5 474.5L24 449.5L18.5 426.5L16.5 400L18.5 382.5L32.5 364.5L53 347L65.5 338.5" stroke="#34171F" stroke-width="4"/>
<path d="M169.5 420.5L146.5 447.5L125 476.5L136 445.5L146 415.5L120.5 420.5L95 434L113 415.5L135 399H73.5L147 378.5L122.5 368L100.5 351L129.5 363L157 367L166 357L165 391L169.5 420.5Z" fill="#A83E1A" stroke="#A83E1A"/>
<path d="M413 438L432.5 409.5L430 389L421 366.5L428.5 374.5L443 381L458.5 377.5H473.5L491.5 362L484 379.5L460 387.5L516 401.5L460 403.5L480.5 422L502.5 459L475 434.5L453 427.5L467 497.5L443 456.5L430 441.5L422 438H413Z" fill="#A83E1A" stroke="#A83E1A"/>
<path d="M311.5 821.5L317.5 819L321 816L322 820.5L334.5 851.5L349 871L356 886L355.5 897.5L355 901.5L353 909L350 915.5L345 924.5L311.5 874.5L319.5 946.5L312.5 947.5L292 881.5L290.5 873.5L279 871.5L267.5 867.5L263 862.5L260 857L257 851L253 841.5L267.5 856L274.5 862.5L282 866.5L292 868.5L304 866L310 864.5L311 859L313.5 840L311.5 821.5Z" fill="#A83E1A" stroke="#A83E1A"/>
<path fill-rule="evenodd" clip-rule="evenodd" d="M229 116L232 117L234 118.5L236.5 123L237 128L237.5 133L236.5 137.5L235.5 140.5L233 142L230 140.5L226.5 134.5L226.25 130.25L226 126L226.5 120.5L230.664 116.555L229 116ZM228 121C227.97 120.335 230.151 118.589 231 118.5C231.776 118.591 233.494 120.315 233.5 121C233.397 121.853 231.639 123.512 231 123.5C230.361 123.495 228.133 121.766 228 121Z" fill="black"/>
<path d="M231 118.5C230.151 118.589 227.97 120.335 228 121C228.133 121.766 230.361 123.495 231 123.5C231.639 123.512 233.397 121.853 233.5 121C233.494 120.315 231.776 118.591 231 118.5Z" fill="white"/>
<path fill-rule="evenodd" clip-rule="evenodd" d="M221 137V127L226.5 134.5L226.25 130.25L226 126L226.5 120.5L230.664 116.555L229 116L224 118.5L222 122L220.5 126.5V131.5L221 137Z" fill="#182338"/>
<path d="M238 128L237 123L234 118.5L236.5 123L237 128L237.5 133L236.5 137.5L235.5 140.5L233 142L230 140.5L226.5 134.5L221 127V137L223 141.5L226 145L230.5 145.5L234.5 144.5L236.5 141.5L238 137.5L238.5 133L238 128Z" fill="#3C60A4"/>
<path d="M229 116L224 118.5L222 122L220.5 126.5V131.5L221 137M229 116L232 117L234 118.5M229 116L230.664 116.555L226.5 120.5L226 126L226.25 130.25L226.5 134.5M234 118.5L237 123L238 128L238.5 133L238 137.5L236.5 141.5L234.5 144.5L230.5 145.5L226 145L223 141.5L221 137M234 118.5L236.5 123L237 128L237.5 133L236.5 137.5L235.5 140.5L233 142L230 140.5L226.5 134.5M221 137V127L226.5 134.5M231 118.5C230.151 118.589 227.97 120.335 228 121C228.133 121.766 230.361 123.495 231 123.5C231.639 123.512 233.397 121.853 233.5 121C233.494 120.315 231.776 118.591 231 118.5Z" stroke="black"/>
<path fill-rule="evenodd" clip-rule="evenodd" d="M369 116.555L366 117.555L364 119.055L361.5 123.555L361 128.555L360.5 133.555L361.5 138.055L362.5 141.055L365 142.555L368 141.055L371.5 135.055L371.75 130.805L372 126.555L371.5 121.055L367.336 117.109L369 116.555ZM370 121.555C370.03 120.89 367.849 119.143 367 119.055C366.224 119.145 364.506 120.87 364.5 121.555C364.603 122.408 366.361 124.067 367 124.055C367.639 124.05 369.867 122.321 370 121.555Z" fill="black"/>
<path d="M367 119.055C367.849 119.143 370.03 120.89 370 121.555C369.867 122.321 367.639 124.05 367 124.055C366.361 124.067 364.603 122.408 364.5 121.555C364.506 120.87 366.224 119.145 367 119.055Z" fill="white"/>
<path fill-rule="evenodd" clip-rule="evenodd" d="M376.5 137V127L371.5 135.055L371.75 130.805L372 126.555L371.5 121.055L367.336 117.109L369 116.555L373.5 118.5L375.5 122L377 126.5V131.5L376.5 137Z" fill="#182338"/>
<path d="M359.5 128L360.5 123L364 119.055L361.5 123.555L361 128.555L360.5 133.555L361.5 138.055L362.5 141.055L365 142.555L368 141.055L371.5 135.055L376.5 127V137L374.5 141.5L371.5 145L367 145.5L363 144.5L361 141.5L359.5 137.5L359 133L359.5 128Z" fill="#3C60A4"/>
<path d="M369 116.555L373.5 118.5L375.5 122L377 126.5V131.5L376.5 137M369 116.555L366 117.555L364 119.055M369 116.555L367.336 117.109L371.5 121.055L372 126.555L371.75 130.805L371.5 135.055M364 119.055L360.5 123L359.5 128L359 133L359.5 137.5L361 141.5L363 144.5L367 145.5L371.5 145L374.5 141.5L376.5 137M364 119.055L361.5 123.555L361 128.555L360.5 133.555L361.5 138.055L362.5 141.055L365 142.555L368 141.055L371.5 135.055M376.5 137V127L371.5 135.055M367 119.055C367.849 119.143 370.03 120.89 370 121.555C369.867 122.321 367.639 124.05 367 124.055C366.361 124.067 364.603 122.408 364.5 121.555C364.506 120.87 366.224 119.145 367 119.055Z" stroke="black"/>
<path d="M264.5 80.6926C272.029 81.6021 274.626 83.4113 276.5 88.1926C276.5 88.1926 276.5 163.193 274 163.193C271.5 163.193 260 172.193 260 172.193C289.351 179.954 301.894 177.636 323.5 172.193C323.5 172.193 317 162.193 314 163.193C311 164.193 317 90.6926 317 90.6926C319.664 84.5612 326.133 80.779 332 77C326.504 70.3347 319.475 56.9155 311.5 55C299.551 51.6689 293.519 54.5147 283 57C275.032 57.4266 256.971 79.783 264.5 80.6926Z" fill="#F08C2C" stroke="#F08C2C"/>
<path d="M258.5 448L222 457L218.5 439.5L213.5 369.5L240 344.5H273.5L278.5 365.5L281.5 411L258.5 448Z" fill="#F08C2C" stroke="#F08C2C"/>
<path d="M327 447.5L363.5 456.5L367 439L372 369L345.5 344H312L307 365L304 410.5L327 447.5Z" fill="#F08C2C" stroke="#F08C2C"/>
<path d="M255 719C238.112 687.858 224.505 620.227 235 612C252.381 594.979 261.73 594.5 277.5 615C281.24 695.691 278.511 699.281 272 724.5C263.47 728.072 259.815 726.664 255 719Z" fill="#F08C2C" stroke="#F08C2C"/>
<path d="M323.193 719.586C340.081 688.444 353.688 620.813 343.193 612.586C325.812 595.566 316.463 595.086 300.693 615.586C296.953 696.277 299.683 699.867 306.193 725.086C314.723 728.659 318.379 727.25 323.193 719.586Z" fill="#F08C2C" stroke="#F08C2C"/>
<path d="M479.5 414.5C492.202 435.027 517 457.5 524.5 455C532 452.5 531.421 430.591 529 412.5C511.266 407.257 500.305 408.157 479.5 414.5Z" fill="#F08C2C" stroke="#F08C2C"/>
<path d="M62.8647 446.413C94.2034 429.035 110.294 417.585 105.865 406.913C87.6178 403.72 78.0068 401.19 49.3647 410.413C47.7723 431.145 51.2376 440.108 62.8647 446.413Z" fill="#F08C2C" stroke="#F08C2C"/>
<path d="M319 892.5C326.068 905.611 330.432 912.444 336 927.5C331.667 932.408 329.152 933.902 324.5 934.5C320.501 918.061 319.767 908.875 319 892.5Z" fill="#F08C2C" stroke="#F08C2C"/>
<path d="M286 895C291.525 914.785 293.484 925.924 292 946C285.014 950.334 281.451 949.927 275.5 946C276.502 926.071 279.311 914.907 286 895Z" fill="#F08C2C"/>
<path d="M233 905.5C239.58 895.236 245.351 892.165 255.5 886.5C251.676 902.073 251.487 911.806 244 925.5C235.953 918.351 233.703 913.941 233 905.5Z" fill="#F08C2C"/>
<path d="M286 895C291.525 914.785 293.484 925.924 292 946C285.014 950.334 281.451 949.927 275.5 946C276.502 926.071 279.311 914.907 286 895Z" stroke="#F08C2C"/>
<path d="M233 905.5C239.58 895.236 245.351 892.165 255.5 886.5C251.676 902.073 251.487 911.806 244 925.5C235.953 918.351 233.703 913.941 233 905.5Z" stroke="#F08C2C"/>
</g>
<defs>
<clipPath id="clip0_2002_331">
<rect width="583" height="1024" fill="white"/>
</clipPath>
</defs>
</svg>
